STARTFONT 2.1
FONT -Monotype-Times New Roman-Regular-I-Normal--10-100-75-75-P-56-iso8859-5
SIZE 10 75 75
FONTBOUNDINGBOX 13 13 -1 -3

STARTPROPERTIES 24
FOUNDRY "Monotype"
FAMILY_NAME "Times New Roman"
WEIGHT_NAME "Regular"
SLANT "I"
SETWIDTH_NAME "Normal"
ADD_STYLE_NAME ""
PIXEL_SIZE 10
POINT_SIZE 100
RESOLUTION_X 75
RESOLUTION_Y 75
SPACING "P"
AVERAGE_WIDTH 56
CHARSET_REGISTRY "iso8859"
CHARSET_ENCODING "5"
FACE_NAME "Times New Roman Inclined ISO Latin Cyrillic"
_DEC_DEVICE_FONTNAMES "PS=timesnewroman-in-latcyrillic"
COPYRIGHT "Copyright (c) 1994 Monotype Typography Ltd."
CAP_HEIGHT 8
X_HEIGHT 5
WEIGHT 10
QUAD_WIDTH 7
DEFAULT_CHAR 160
FONT_DESCENT 3
FONT_ASCENT 10
ENDPROPERTIES

CHARS 191

STARTCHAR space
ENCODING 32
SWIDTH 250 0
DWIDTH 3 0
BBX 0 0 0 0
BITMAP
ENDCHAR

STARTCHAR exclam
ENCODING 33
SWIDTH 271 0
DWIDTH 3 0
BBX 3 7 1 0
BITMAP
20
20
40
40
40
00
80
ENDCHAR

STARTCHAR quotedbl
ENCODING 34
SWIDTH 417 0
DWIDTH 4 0
BBX 3 3 1 4
BITMAP
A0
A0
A0
ENDCHAR

STARTCHAR numbersign
ENCODING 35
SWIDTH 667 0
DWIDTH 7 0
BBX 5 7 1 -1
BITMAP
28
28
F8
50
F8
A0
A0
ENDCHAR

STARTCHAR dollar
ENCODING 36
SWIDTH 500 0
DWIDTH 5 0
BBX 5 9 0 -1
BITMAP
10
38
50
50
20
50
50
E0
40
ENDCHAR

STARTCHAR percent
ENCODING 37
SWIDTH 823 0
DWIDTH 8 0
BBX 7 7 1 0
BITMAP
42
A4
A8
54
2A
4A
84
ENDCHAR

STARTCHAR ampersand
ENCODING 38
SWIDTH 719 0
DWIDTH 7 0
BBX 6 7 1 0
BITMAP
10
28
70
AC
A8
90
6C
ENDCHAR

STARTCHAR quoteright
ENCODING 39
SWIDTH 271 0
DWIDTH 3 0
BBX 2 2 2 5
BITMAP
40
80
ENDCHAR

STARTCHAR parenleft
ENCODING 40
SWIDTH 500 0
DWIDTH 5 0
BBX 4 9 1 -2
BITMAP
10
20
40
40
80
80
80
80
80
ENDCHAR

STARTCHAR parenright
ENCODING 41
SWIDTH 500 0
DWIDTH 5 0
BBX 4 9 0 -2
BITMAP
10
10
10
10
10
20
20
40
80
ENDCHAR

STARTCHAR asterisk
ENCODING 42
SWIDTH 500 0
DWIDTH 5 0
BBX 5 4 1 3
BITMAP
A8
70
70
A8
ENDCHAR

STARTCHAR plus
ENCODING 43
SWIDTH 667 0
DWIDTH 7 0
BBX 5 5 1 0
BITMAP
20
20
F8
20
20
ENDCHAR

STARTCHAR comma
ENCODING 44
SWIDTH 266 0
DWIDTH 3 0
BBX 2 2 1 -1
BITMAP
40
80
ENDCHAR

STARTCHAR minus
ENCODING 45
SWIDTH 667 0
DWIDTH 7 0
BBX 5 1 1 2
BITMAP
F8
ENDCHAR

STARTCHAR period
ENCODING 46
SWIDTH 271 0
DWIDTH 3 0
BBX 1 1 1 0
BITMAP
80
ENDCHAR

STARTCHAR slash
ENCODING 47
SWIDTH 281 0
DWIDTH 3 0
BBX 5 8 -1 -1
BITMAP
08
10
10
20
20
40
40
80
ENDCHAR

STARTCHAR zero
ENCODING 48
SWIDTH 500 0
DWIDTH 5 0
BBX 4 7 1 0
BITMAP
20
50
90
90
90
A0
40
ENDCHAR

STARTCHAR one
ENCODING 49
SWIDTH 500 0
DWIDTH 5 0
BBX 4 7 1 0
BITMAP
30
10
20
20
20
40
E0
ENDCHAR

STARTCHAR two
ENCODING 50
SWIDTH 500 0
DWIDTH 5 0
BBX 5 7 0 0
BITMAP
30
08
08
10
20
40
F0
ENDCHAR

STARTCHAR three
ENCODING 51
SWIDTH 500 0
DWIDTH 5 0
BBX 5 7 0 0
BITMAP
30
08
08
30
10
10
E0
ENDCHAR

STARTCHAR four
ENCODING 52
SWIDTH 500 0
DWIDTH 5 0
BBX 5 7 0 0
BITMAP
08
18
30
50
F8
20
20
ENDCHAR

STARTCHAR five
ENCODING 53
SWIDTH 500 0
DWIDTH 5 0
BBX 5 7 0 0
BITMAP
18
20
70
10
10
20
C0
ENDCHAR

STARTCHAR six
ENCODING 54
SWIDTH 500 0
DWIDTH 5 0
BBX 4 7 1 0
BITMAP
30
40
A0
D0
90
A0
40
ENDCHAR

STARTCHAR seven
ENCODING 55
SWIDTH 500 0
DWIDTH 5 0
BBX 4 7 1 0
BITMAP
70
90
20
20
40
40
80
ENDCHAR

STARTCHAR eight
ENCODING 56
SWIDTH 500 0
DWIDTH 5 0
BBX 4 7 1 0
BITMAP
30
50
50
60
90
90
60
ENDCHAR

STARTCHAR nine
ENCODING 57
SWIDTH 500 0
DWIDTH 5 0
BBX 4 7 1 0
BITMAP
20
50
90
B0
50
20
C0
ENDCHAR

STARTCHAR colon
ENCODING 58
SWIDTH 333 0
DWIDTH 3 0
BBX 2 5 1 0
BITMAP
40
00
00
00
80
ENDCHAR

STARTCHAR semicolon
ENCODING 59
SWIDTH 333 0
DWIDTH 3 0
BBX 3 6 0 -1
BITMAP
20
00
00
00
40
80
ENDCHAR

STARTCHAR less
ENCODING 60
SWIDTH 667 0
DWIDTH 7 0
BBX 5 5 1 0
BITMAP
08
30
C0
30
08
ENDCHAR

STARTCHAR equal
ENCODING 61
SWIDTH 667 0
DWIDTH 7 0
BBX 5 3 1 1
BITMAP
F8
00
F8
ENDCHAR

STARTCHAR greater
ENCODING 62
SWIDTH 667 0
DWIDTH 7 0
BBX 5 5 1 0
BITMAP
80
60
18
60
80
ENDCHAR

STARTCHAR question
ENCODING 63
SWIDTH 385 0
DWIDTH 4 0
BBX 4 7 1 0
BITMAP
20
50
10
20
40
00
80
ENDCHAR

STARTCHAR at
ENCODING 64
SWIDTH 917 0
DWIDTH 9 0
BBX 9 9 0 -2
BITMAP
1E00
6100
4E80
9280
A480
A500
5A80
6100
1E00
ENDCHAR

STARTCHAR A
ENCODING 65
SWIDTH 719 0
DWIDTH 7 0
BBX 7 7 0 0
BITMAP
04
04
0C
14
3C
44
CE
ENDCHAR

STARTCHAR B
ENCODING 66
SWIDTH 667 0
DWIDTH 7 0
BBX 7 7 0 0
BITMAP
3C
12
22
3C
24
44
F8
ENDCHAR

STARTCHAR C
ENCODING 67
SWIDTH 719 0
DWIDTH 7 0
BBX 6 7 1 0
BITMAP
1C
24
40
80
80
88
70
ENDCHAR

STARTCHAR D
ENCODING 68
SWIDTH 771 0
DWIDTH 8 0
BBX 8 7 0 0
BITMAP
3E
11
21
21
22
44
F8
ENDCHAR

STARTCHAR E
ENCODING 69
SWIDTH 667 0
DWIDTH 7 0
BBX 7 7 0 0
BITMAP
3E
12
20
38
20
44
FC
ENDCHAR

STARTCHAR F
ENCODING 70
SWIDTH 604 0
DWIDTH 6 0
BBX 7 7 0 0
BITMAP
3E
12
20
38
20
40
E0
ENDCHAR

STARTCHAR G
ENCODING 71
SWIDTH 719 0
DWIDTH 7 0
BBX 7 7 1 0
BITMAP
1C
24
40
8E
84
88
70
ENDCHAR

STARTCHAR H
ENCODING 72
SWIDTH 823 0
DWIDTH 8 0
BBX 9 7 0 0
BITMAP
3B80
1100
2200
3E00
2200
4400
EE00
ENDCHAR

STARTCHAR I
ENCODING 73
SWIDTH 385 0
DWIDTH 4 0
BBX 5 7 0 0
BITMAP
38
10
20
20
20
40
E0
ENDCHAR

STARTCHAR J
ENCODING 74
SWIDTH 500 0
DWIDTH 5 0
BBX 6 7 0 0
BITMAP
1C
08
10
10
10
A0
40
ENDCHAR

STARTCHAR K
ENCODING 75
SWIDTH 719 0
DWIDTH 7 0
BBX 8 7 0 0
BITMAP
3B
14
28
30
28
44
EE
ENDCHAR

STARTCHAR L
ENCODING 76
SWIDTH 667 0
DWIDTH 7 0
BBX 7 7 0 0
BITMAP
38
10
20
20
20
42
FC
ENDCHAR

STARTCHAR M
ENCODING 77
SWIDTH 990 0
DWIDTH 10 0
BBX 11 7 0 0
BITMAP
3060
10C0
2980
2A80
2C80
4900
EB80
ENDCHAR

STARTCHAR N
ENCODING 78
SWIDTH 771 0
DWIDTH 8 0
BBX 9 7 0 0
BITMAP
3380
1100
2A00
2A00
2A00
4400
E400
ENDCHAR

STARTCHAR O
ENCODING 79
SWIDTH 771 0
DWIDTH 8 0
BBX 7 7 1 0
BITMAP
1C
22
42
82
84
88
70
ENDCHAR

STARTCHAR P
ENCODING 80
SWIDTH 667 0
DWIDTH 7 0
BBX 7 7 0 0
BITMAP
3C
12
22
3C
20
40
E0
ENDCHAR

STARTCHAR Q
ENCODING 81
SWIDTH 771 0
DWIDTH 8 0
BBX 8 9 0 -2
BITMAP
0E
11
21
41
42
44
38
62
9C
ENDCHAR

STARTCHAR R
ENCODING 82
SWIDTH 719 0
DWIDTH 7 0
BBX 7 7 0 0
BITMAP
3C
12
22
3C
28
44
E6
ENDCHAR

STARTCHAR S
ENCODING 83
SWIDTH 604 0
DWIDTH 6 0
BBX 5 7 1 0
BITMAP
38
48
40
20
10
90
E0
ENDCHAR

STARTCHAR T
ENCODING 84
SWIDTH 667 0
DWIDTH 7 0
BBX 7 7 1 0
BITMAP
7E
92
20
20
20
40
E0
ENDCHAR

STARTCHAR U
ENCODING 85
SWIDTH 771 0
DWIDTH 8 0
BBX 8 7 1 0
BITMAP
77
22
44
44
44
88
70
ENDCHAR

STARTCHAR V
ENCODING 86
SWIDTH 719 0
DWIDTH 7 0
BBX 7 7 1 0
BITMAP
EE
44
48
50
50
60
40
ENDCHAR

STARTCHAR W
ENCODING 87
SWIDTH 990 0
DWIDTH 10 0
BBX 11 7 1 0
BITMAP
EEE0
4440
4C80
5500
5500
6600
4400
ENDCHAR

STARTCHAR X
ENCODING 88
SWIDTH 719 0
DWIDTH 7 0
BBX 8 7 0 0
BITMAP
3B
12
14
18
28
48
DC
ENDCHAR

STARTCHAR Y
ENCODING 89
SWIDTH 719 0
DWIDTH 7 0
BBX 6 7 2 0
BITMAP
EC
48
50
20
20
40
E0
ENDCHAR

STARTCHAR Z
ENCODING 90
SWIDTH 719 0
DWIDTH 7 0
BBX 8 7 0 0
BITMAP
1F
22
04
18
20
42
FC
ENDCHAR

STARTCHAR bracketleft
ENCODING 91
SWIDTH 500 0
DWIDTH 5 0
BBX 5 11 0 -3
BITMAP
18
10
10
20
20
20
40
40
40
80
C0
ENDCHAR

STARTCHAR backslash
ENCODING 92
SWIDTH 281 0
DWIDTH 3 0
BBX 5 8 -1 -1
BITMAP
80
40
40
20
20
10
10
08
ENDCHAR

STARTCHAR bracketright
ENCODING 93
SWIDTH 500 0
DWIDTH 5 0
BBX 5 11 0 -3
BITMAP
18
08
08
10
10
10
20
20
20
40
C0
ENDCHAR

STARTCHAR asciicircum
ENCODING 94
SWIDTH 583 0
DWIDTH 4 0
BBX 5 3 0 4
BITMAP
20
50
88
ENDCHAR

STARTCHAR underscore
ENCODING 95
SWIDTH 500 0
DWIDTH 5 0
BBX 5 1 0 -2
BITMAP
F8
ENDCHAR

STARTCHAR quoteleft
ENCODING 96
SWIDTH 271 0
DWIDTH 3 0
BBX 2 2 1 5
BITMAP
80
40
ENDCHAR

STARTCHAR a
ENCODING 97
SWIDTH 500 0
DWIDTH 5 0
BBX 4 5 1 0
BITMAP
30
50
90
A0
D0
ENDCHAR

STARTCHAR b
ENCODING 98
SWIDTH 500 0
DWIDTH 5 0
BBX 4 7 1 0
BITMAP
60
20
70
50
50
A0
C0
ENDCHAR

STARTCHAR c
ENCODING 99
SWIDTH 438 0
DWIDTH 4 0
BBX 4 5 1 0
BITMAP
30
50
80
A0
C0
ENDCHAR

STARTCHAR d
ENCODING 100
SWIDTH 500 0
DWIDTH 5 0
BBX 5 7 1 0
BITMAP
18
08
30
50
90
A0
D0
ENDCHAR

STARTCHAR e
ENCODING 101
SWIDTH 438 0
DWIDTH 4 0
BBX 4 5 1 0
BITMAP
20
50
E0
80
60
ENDCHAR

STARTCHAR f
ENCODING 102
SWIDTH 333 0
DWIDTH 3 0
BBX 6 9 -1 -2
BITMAP
0C
10
38
10
10
20
20
20
C0
ENDCHAR

STARTCHAR g
ENCODING 103
SWIDTH 500 0
DWIDTH 5 0
BBX 6 7 0 -2
BITMAP
3C
48
30
40
70
88
70
ENDCHAR

STARTCHAR h
ENCODING 104
SWIDTH 500 0
DWIDTH 5 0
BBX 4 7 1 0
BITMAP
60
20
50
70
50
A0
B0
ENDCHAR

STARTCHAR i
ENCODING 105
SWIDTH 271 0
DWIDTH 3 0
BBX 2 7 1 0
BITMAP
40
00
C0
40
40
80
C0
ENDCHAR

STARTCHAR j
ENCODING 106
SWIDTH 271 0
DWIDTH 3 0
BBX 4 10 -1 -3
BITMAP
10
00
30
10
10
20
20
20
40
80
ENDCHAR

STARTCHAR k
ENCODING 107
SWIDTH 531 0
DWIDTH 5 0
BBX 5 7 1 0
BITMAP
60
20
48
50
60
A8
90
ENDCHAR

STARTCHAR l
ENCODING 108
SWIDTH 271 0
DWIDTH 3 0
BBX 3 7 1 0
BITMAP
60
20
40
40
40
80
C0
ENDCHAR

STARTCHAR m
ENCODING 109
SWIDTH 771 0
DWIDTH 8 0
BBX 7 5 1 0
BITMAP
D6
7A
52
A4
A6
ENDCHAR

STARTCHAR n
ENCODING 110
SWIDTH 500 0
DWIDTH 5 0
BBX 4 5 1 0
BITMAP
D0
70
50
A0
B0
ENDCHAR

STARTCHAR o
ENCODING 111
SWIDTH 500 0
DWIDTH 5 0
BBX 4 5 1 0
BITMAP
30
50
90
A0
C0
ENDCHAR

STARTCHAR p
ENCODING 112
SWIDTH 500 0
DWIDTH 5 0
BBX 6 7 -1 -2
BITMAP
3C
14
14
28
30
40
E0
ENDCHAR

STARTCHAR q
ENCODING 113
SWIDTH 500 0
DWIDTH 5 0
BBX 4 7 1 -2
BITMAP
30
50
90
A0
E0
20
70
ENDCHAR

STARTCHAR r
ENCODING 114
SWIDTH 385 0
DWIDTH 4 0
BBX 4 5 1 0
BITMAP
D0
60
40
80
80
ENDCHAR

STARTCHAR s
ENCODING 115
SWIDTH 385 0
DWIDTH 4 0
BBX 4 5 1 0
BITMAP
30
40
20
20
C0
ENDCHAR

STARTCHAR t
ENCODING 116
SWIDTH 333 0
DWIDTH 3 0
BBX 3 6 1 0
BITMAP
20
E0
40
40
80
C0
ENDCHAR

STARTCHAR u
ENCODING 117
SWIDTH 500 0
DWIDTH 5 0
BBX 4 5 1 0
BITMAP
D0
50
50
A0
D0
ENDCHAR

STARTCHAR v
ENCODING 118
SWIDTH 438 0
DWIDTH 4 0
BBX 5 5 0 0
BITMAP
D8
48
50
60
40
ENDCHAR

STARTCHAR w
ENCODING 119
SWIDTH 667 0
DWIDTH 7 0
BBX 8 5 0 0
BITMAP
CB
49
5A
6C
48
ENDCHAR

STARTCHAR x
ENCODING 120
SWIDTH 552 0
DWIDTH 6 0
BBX 5 5 1 0
BITMAP
68
30
20
68
90
ENDCHAR

STARTCHAR y
ENCODING 121
SWIDTH 500 0
DWIDTH 5 0
BBX 6 7 0 -2
BITMAP
6C
24
28
30
20
40
80
ENDCHAR

STARTCHAR z
ENCODING 122
SWIDTH 438 0
DWIDTH 4 0
BBX 4 5 0 0
BITMAP
70
10
20
40
F0
ENDCHAR

STARTCHAR braceleft
ENCODING 123
SWIDTH 479 0
DWIDTH 5 0
BBX 3 9 1 -2
BITMAP
20
40
40
40
80
40
40
40
20
ENDCHAR

STARTCHAR bar
ENCODING 124
SWIDTH 271 0
DWIDTH 3 0
BBX 1 9 1 -2
BITMAP
80
80
80
80
80
80
80
80
80
ENDCHAR

STARTCHAR braceright
ENCODING 125
SWIDTH 479 0
DWIDTH 5 0
BBX 3 9 1 -2
BITMAP
80
40
40
40
20
40
40
40
80
ENDCHAR

STARTCHAR asciitilde
ENCODING 126
SWIDTH 667 0
DWIDTH 5 0
BBX 6 2 0 2
BITMAP
64
98
ENDCHAR

STARTCHAR space
ENCODING 160
SWIDTH 250 0
DWIDTH 3 0
BBX 0 0 0 0
BITMAP
ENDCHAR

STARTCHAR afii10023
ENCODING 161
SWIDTH 667 0
DWIDTH 7 0
BBX 7 9 0 0
BITMAP
0A
00
3E
12
20
38
20
44
FC
ENDCHAR

STARTCHAR afii10051
ENCODING 162
SWIDTH 809 0
DWIDTH 8 0
BBX 7 7 1 0
BITMAP
7C
94
20
2C
32
44
E8
ENDCHAR

STARTCHAR afii10052
ENCODING 163
SWIDTH 631 0
DWIDTH 6 0
BBX 7 10 0 0
BITMAP
02
04
00
3E
12
20
20
20
40
E0
ENDCHAR

STARTCHAR afii10053
ENCODING 164
SWIDTH 719 0
DWIDTH 7 0
BBX 6 7 1 0
BITMAP
1C
24
40
F0
80
88
70
ENDCHAR

STARTCHAR afii10054
ENCODING 165
SWIDTH 604 0
DWIDTH 6 0
BBX 5 7 1 0
BITMAP
38
48
40
20
10
90
E0
ENDCHAR

STARTCHAR afii10055
ENCODING 166
SWIDTH 385 0
DWIDTH 4 0
BBX 5 7 0 0
BITMAP
38
10
20
20
20
40
E0
ENDCHAR

STARTCHAR afii10056
ENCODING 167
SWIDTH 385 0
DWIDTH 4 0
BBX 6 9 0 0
BITMAP
14
00
38
10
20
20
20
40
E0
ENDCHAR

STARTCHAR afii10057
ENCODING 168
SWIDTH 500 0
DWIDTH 5 0
BBX 6 7 0 0
BITMAP
1C
08
10
10
10
A0
40
ENDCHAR

STARTCHAR afii10058
ENCODING 169
SWIDTH 957 0
DWIDTH 10 0
BBX 10 7 0 0
BITMAP
1F80
0900
1200
1380
1240
A440
4F80
ENDCHAR

STARTCHAR afii10059
ENCODING 170
SWIDTH 984 0
DWIDTH 10 0
BBX 10 7 0 0
BITMAP
3B80
1100
2200
3F80
2240
4440
E780
ENDCHAR

STARTCHAR afii10060
ENCODING 171
SWIDTH 811 0
DWIDTH 8 0
BBX 7 7 1 0
BITMAP
7C
94
20
2C
32
44
EE
ENDCHAR

STARTCHAR afii10061
ENCODING 172
SWIDTH 713 0
DWIDTH 7 0
BBX 8 10 0 0
BITMAP
02
04
00
3B
15
28
30
28
44
EE
ENDCHAR

STARTCHAR hyphen
ENCODING 173
SWIDTH 333 0
DWIDTH 3 0
BBX 2 1 1 2
BITMAP
C0
ENDCHAR

STARTCHAR afii10062
ENCODING 174
SWIDTH 688 0
DWIDTH 7 0
BBX 7 10 1 0
BITMAP
24
18
00
E6
44
28
28
10
A0
40
ENDCHAR

STARTCHAR afii10145
ENCODING 175
SWIDTH 804 0
DWIDTH 8 0
BBX 9 8 0 -1
BITMAP
3B80
1100
2200
2200
2200
4400
FE00
1000
ENDCHAR

STARTCHAR afii10017
ENCODING 176
SWIDTH 719 0
DWIDTH 7 0
BBX 7 7 0 0
BITMAP
04
04
0C
14
3C
44
CE
ENDCHAR

STARTCHAR afii10018
ENCODING 177
SWIDTH 655 0
DWIDTH 7 0
BBX 7 7 0 0
BITMAP
3E
12
20
38
24
44
F8
ENDCHAR

STARTCHAR afii10019
ENCODING 178
SWIDTH 667 0
DWIDTH 7 0
BBX 7 7 0 0
BITMAP
3C
12
22
3C
24
44
F8
ENDCHAR

STARTCHAR afii10020
ENCODING 179
SWIDTH 631 0
DWIDTH 6 0
BBX 7 7 0 0
BITMAP
3E
12
20
20
20
40
E0
ENDCHAR

STARTCHAR afii10021
ENCODING 180
SWIDTH 675 0
DWIDTH 7 0
BBX 9 9 -1 -2
BITMAP
1F80
0900
1200
1200
2200
4400
FE00
8200
8200
ENDCHAR

STARTCHAR afii10022
ENCODING 181
SWIDTH 667 0
DWIDTH 7 0
BBX 7 7 0 0
BITMAP
3E
12
20
38
20
44
FC
ENDCHAR

STARTCHAR afii10024
ENCODING 182
SWIDTH 947 0
DWIDTH 9 0
BBX 11 7 -1 0
BITMAP
3760
1240
1480
1F00
2480
4880
DCC0
ENDCHAR

STARTCHAR afii10025
ENCODING 183
SWIDTH 527 0
DWIDTH 5 0
BBX 5 7 0 0
BITMAP
30
48
08
70
10
90
60
ENDCHAR

STARTCHAR afii10026
ENCODING 184
SWIDTH 805 0
DWIDTH 8 0
BBX 9 7 0 0
BITMAP
3B80
1100
2600
2A00
3200
4400
EE00
ENDCHAR

STARTCHAR afii10027
ENCODING 185
SWIDTH 805 0
DWIDTH 8 0
BBX 9 10 0 0
BITMAP
0900
0600
0000
3B80
1100
2600
2A00
3200
4400
EE00
ENDCHAR

STARTCHAR afii10028
ENCODING 186
SWIDTH 713 0
DWIDTH 7 0
BBX 8 7 0 0
BITMAP
3B
15
28
30
28
44
EE
ENDCHAR

STARTCHAR afii10029
ENCODING 187
SWIDTH 715 0
DWIDTH 7 0
BBX 9 7 -1 0
BITMAP
1F80
0900
1200
1200
1200
A400
4E00
ENDCHAR

STARTCHAR afii10030
ENCODING 188
SWIDTH 990 0
DWIDTH 10 0
BBX 11 7 0 0
BITMAP
3060
10C0
2980
2A80
2C80
4900
EB80
ENDCHAR

STARTCHAR afii10031
ENCODING 189
SWIDTH 823 0
DWIDTH 8 0
BBX 9 7 0 0
BITMAP
3B80
1100
2200
3E00
2200
4400
EE00
ENDCHAR

STARTCHAR afii10032
ENCODING 190
SWIDTH 771 0
DWIDTH 8 0
BBX 7 7 1 0
BITMAP
1C
22
42
82
84
88
70
ENDCHAR

STARTCHAR afii10033
ENCODING 191
SWIDTH 805 0
DWIDTH 8 0
BBX 9 7 0 0
BITMAP
3F80
1100
2200
2200
2200
4400
EE00
ENDCHAR

STARTCHAR afii10034
ENCODING 192
SWIDTH 667 0
DWIDTH 7 0
BBX 7 7 0 0
BITMAP
3C
12
22
3C
20
40
E0
ENDCHAR

STARTCHAR afii10035
ENCODING 193
SWIDTH 719 0
DWIDTH 7 0
BBX 6 7 1 0
BITMAP
1C
24
40
80
80
88
70
ENDCHAR

STARTCHAR afii10036
ENCODING 194
SWIDTH 667 0
DWIDTH 7 0
BBX 7 7 1 0
BITMAP
7E
92
20
20
20
40
E0
ENDCHAR

STARTCHAR afii10037
ENCODING 195
SWIDTH 688 0
DWIDTH 7 0
BBX 7 7 1 0
BITMAP
E6
44
48
30
10
A0
40
ENDCHAR

STARTCHAR afii10038
ENCODING 196
SWIDTH 796 0
DWIDTH 8 0
BBX 7 7 1 0
BITMAP
1C
08
7E
92
FC
20
70
ENDCHAR

STARTCHAR afii10039
ENCODING 197
SWIDTH 719 0
DWIDTH 7 0
BBX 8 7 0 0
BITMAP
3B
12
14
18
28
48
DC
ENDCHAR

STARTCHAR afii10040
ENCODING 198
SWIDTH 804 0
DWIDTH 8 0
BBX 9 8 0 -1
BITMAP
3B80
1100
2200
2200
2200
4400
FE00
0200
ENDCHAR

STARTCHAR afii10041
ENCODING 199
SWIDTH 727 0
DWIDTH 7 0
BBX 7 7 1 0
BITMAP
EE
44
98
68
08
10
38
ENDCHAR

STARTCHAR afii10042
ENCODING 200
SWIDTH 1126 0
DWIDTH 11 0
BBX 12 7 0 0
BITMAP
3970
1120
2240
2240
2240
4480
FFC0
ENDCHAR

STARTCHAR afii10043
ENCODING 201
SWIDTH 1126 0
DWIDTH 11 0
BBX 12 8 0 -1
BITMAP
3970
1120
2240
2240
2240
4480
FFC0
0040
ENDCHAR

STARTCHAR afii10044
ENCODING 202
SWIDTH 730 0
DWIDTH 7 0
BBX 6 7 1 0
BITMAP
78
90
20
38
24
44
F8
ENDCHAR

STARTCHAR afii10045
ENCODING 203
SWIDTH 964 0
DWIDTH 10 0
BBX 11 7 0 0
BITMAP
38E0
1040
2080
3880
2480
4500
FB80
ENDCHAR

STARTCHAR afii10046
ENCODING 204
SWIDTH 655 0
DWIDTH 7 0
BBX 6 7 0 0
BITMAP
38
10
20
38
24
44
F8
ENDCHAR

STARTCHAR afii10047
ENCODING 205
SWIDTH 704 0
DWIDTH 7 0
BBX 6 7 1 0
BITMAP
78
44
04
1C
04
88
70
ENDCHAR

STARTCHAR afii10048
ENCODING 206
SWIDTH 1106 0
DWIDTH 11 0
BBX 11 7 0 0
BITMAP
39C0
1220
2420
3820
2840
4880
E700
ENDCHAR

STARTCHAR afii10049
ENCODING 207
SWIDTH 710 0
DWIDTH 7 0
BBX 8 7 0 0
BITMAP
1F
22
24
1C
24
48
DC
ENDCHAR

STARTCHAR afii10065
ENCODING 208
SWIDTH 500 0
DWIDTH 5 0
BBX 4 5 1 0
BITMAP
30
50
90
A0
D0
ENDCHAR

STARTCHAR afii10066
ENCODING 209
SWIDTH 507 0
DWIDTH 5 0
BBX 5 7 1 0
BITMAP
38
40
70
50
90
A0
C0
ENDCHAR

STARTCHAR afii10067
ENCODING 210
SWIDTH 438 0
DWIDTH 4 0
BBX 4 5 0 0
BITMAP
20
50
E0
A0
40
ENDCHAR

STARTCHAR afii10068
ENCODING 211
SWIDTH 406 0
DWIDTH 4 0
BBX 4 5 0 0
BITMAP
60
10
60
80
60
ENDCHAR

STARTCHAR afii10069
ENCODING 212
SWIDTH 501 0
DWIDTH 5 0
BBX 4 7 1 0
BITMAP
20
10
30
50
90
A0
C0
ENDCHAR

STARTCHAR afii10070
ENCODING 213
SWIDTH 438 0
DWIDTH 4 0
BBX 4 5 1 0
BITMAP
20
50
E0
80
60
ENDCHAR

STARTCHAR afii10072
ENCODING 214
SWIDTH 997 0
DWIDTH 10 0
BBX 10 5 0 0
BITMAP
6480
1540
1E00
AA00
4980
ENDCHAR

STARTCHAR afii10073
ENCODING 215
SWIDTH 404 0
DWIDTH 4 0
BBX 4 5 0 0
BITMAP
70
10
70
20
E0
ENDCHAR

STARTCHAR afii10074
ENCODING 216
SWIDTH 500 0
DWIDTH 5 0
BBX 4 5 1 0
BITMAP
D0
50
50
A0
D0
ENDCHAR

STARTCHAR afii10075
ENCODING 217
SWIDTH 500 0
DWIDTH 5 0
BBX 4 8 1 0
BITMAP
50
20
00
D0
50
50
A0
D0
ENDCHAR

STARTCHAR afii10076
ENCODING 218
SWIDTH 498 0
DWIDTH 5 0
BBX 5 5 1 0
BITMAP
C8
50
60
90
90
ENDCHAR

STARTCHAR afii10077
ENCODING 219
SWIDTH 454 0
DWIDTH 5 0
BBX 6 5 -1 0
BITMAP
3C
14
14
A8
4C
ENDCHAR

STARTCHAR afii10078
ENCODING 220
SWIDTH 655 0
DWIDTH 7 0
BBX 7 5 0 0
BITMAP
12
36
3C
54
D6
ENDCHAR

STARTCHAR afii10079
ENCODING 221
SWIDTH 505 0
DWIDTH 5 0
BBX 4 5 1 0
BITMAP
D0
50
70
A0
B0
ENDCHAR

STARTCHAR afii10080
ENCODING 222
SWIDTH 500 0
DWIDTH 5 0
BBX 4 5 1 0
BITMAP
30
50
90
A0
C0
ENDCHAR

STARTCHAR afii10081
ENCODING 223
SWIDTH 500 0
DWIDTH 5 0
BBX 4 5 1 0
BITMAP
D0
70
50
A0
B0
ENDCHAR

STARTCHAR afii10082
ENCODING 224
SWIDTH 500 0
DWIDTH 5 0
BBX 6 7 -1 -2
BITMAP
3C
14
14
28
30
40
E0
ENDCHAR

STARTCHAR afii10083
ENCODING 225
SWIDTH 438 0
DWIDTH 4 0
BBX 4 5 1 0
BITMAP
30
50
80
A0
C0
ENDCHAR

STARTCHAR afii10084
ENCODING 226
SWIDTH 771 0
DWIDTH 8 0
BBX 7 5 1 0
BITMAP
D6
7A
52
A4
A6
ENDCHAR

STARTCHAR afii10085
ENCODING 227
SWIDTH 500 0
DWIDTH 5 0
BBX 6 7 0 -2
BITMAP
6C
24
28
30
20
40
80
ENDCHAR

STARTCHAR afii10086
ENCODING 228
SWIDTH 704 0
DWIDTH 7 0
BBX 7 9 0 -2
BITMAP
18
08
2E
52
92
94
E8
20
70
ENDCHAR

STARTCHAR afii10087
ENCODING 229
SWIDTH 552 0
DWIDTH 6 0
BBX 5 5 1 0
BITMAP
68
30
20
68
90
ENDCHAR

STARTCHAR afii10088
ENCODING 230
SWIDTH 500 0
DWIDTH 5 0
BBX 4 7 1 -2
BITMAP
D0
50
50
A0
D0
10
20
ENDCHAR

STARTCHAR afii10089
ENCODING 231
SWIDTH 471 0
DWIDTH 5 0
BBX 4 5 1 0
BITMAP
D0
50
70
20
30
ENDCHAR

STARTCHAR afii10090
ENCODING 232
SWIDTH 756 0
DWIDTH 8 0
BBX 7 5 1 0
BITMAP
CA
4A
4A
B4
DE
ENDCHAR

STARTCHAR afii10091
ENCODING 233
SWIDTH 756 0
DWIDTH 8 0
BBX 7 7 1 -2
BITMAP
CA
4A
4A
B4
DE
02
04
ENDCHAR

STARTCHAR afii10092
ENCODING 234
SWIDTH 509 0
DWIDTH 5 0
BBX 5 5 0 0
BITMAP
60
B8
28
50
20
ENDCHAR

STARTCHAR afii10093
ENCODING 235
SWIDTH 648 0
DWIDTH 6 0
BBX 7 5 -1 0
BITMAP
66
BA
2A
54
26
ENDCHAR

STARTCHAR afii10094
ENCODING 236
SWIDTH 441 0
DWIDTH 4 0
BBX 5 5 0 0
BITMAP
E0
38
28
D0
60
ENDCHAR

STARTCHAR afii10095
ENCODING 237
SWIDTH 437 0
DWIDTH 4 0
BBX 4 5 0 0
BITMAP
30
50
30
90
60
ENDCHAR

STARTCHAR afii10096
ENCODING 238
SWIDTH 706 0
DWIDTH 7 0
BBX 6 5 1 0
BITMAP
CC
54
64
A8
B0
ENDCHAR

STARTCHAR afii10097
ENCODING 239
SWIDTH 474 0
DWIDTH 5 0
BBX 5 5 0 0
BITMAP
38
48
38
50
98
ENDCHAR

STARTCHAR afii61352
ENCODING 240
SWIDTH 1043 0
DWIDTH 10 0
BBX 11 7 0 0
BITMAP
3080
1160
12A0
2AA0
2AC0
4400
85C0
ENDCHAR

STARTCHAR afii10071
ENCODING 241
SWIDTH 438 0
DWIDTH 4 0
BBX 4 7 1 0
BITMAP
50
00
20
50
E0
80
60
ENDCHAR

STARTCHAR afii10099
ENCODING 242
SWIDTH 485 0
DWIDTH 5 0
BBX 4 9 1 -2
BITMAP
70
20
50
70
50
A0
A0
20
40
ENDCHAR

STARTCHAR afii10100
ENCODING 243
SWIDTH 402 0
DWIDTH 4 0
BBX 5 8 0 0
BITMAP
08
10
00
78
28
20
40
E0
ENDCHAR

STARTCHAR afii10101
ENCODING 244
SWIDTH 434 0
DWIDTH 4 0
BBX 4 5 1 0
BITMAP
30
40
E0
80
60
ENDCHAR

STARTCHAR afii10102
ENCODING 245
SWIDTH 385 0
DWIDTH 4 0
BBX 4 5 1 0
BITMAP
30
40
20
20
C0
ENDCHAR

STARTCHAR afii10103
ENCODING 246
SWIDTH 271 0
DWIDTH 3 0
BBX 2 7 1 0
BITMAP
40
00
C0
40
40
80
C0
ENDCHAR

STARTCHAR afii10104
ENCODING 247
SWIDTH 271 0
DWIDTH 3 0
BBX 3 7 1 0
BITMAP
A0
00
C0
40
40
80
C0
ENDCHAR

STARTCHAR afii10105
ENCODING 248
SWIDTH 271 0
DWIDTH 3 0
BBX 4 10 -1 -3
BITMAP
10
00
30
10
10
20
20
20
40
80
ENDCHAR

STARTCHAR afii10106
ENCODING 249
SWIDTH 679 0
DWIDTH 7 0
BBX 7 5 0 0
BITMAP
1C
24
4A
4A
8C
ENDCHAR

STARTCHAR afii10107
ENCODING 250
SWIDTH 719 0
DWIDTH 7 0
BBX 6 5 1 0
BITMAP
D0
5C
E4
A8
90
ENDCHAR

STARTCHAR afii10108
ENCODING 251
SWIDTH 500 0
DWIDTH 5 0
BBX 4 7 1 0
BITMAP
70
20
50
70
50
A0
B0
ENDCHAR

STARTCHAR afii10109
ENCODING 252
SWIDTH 498 0
DWIDTH 5 0
BBX 5 8 1 0
BITMAP
10
20
00
C8
50
60
90
90
ENDCHAR

STARTCHAR section
ENCODING 253
SWIDTH 521 0
DWIDTH 6 0
BBX 6 10 0 -2
BITMAP
18
24
20
30
48
48
30
10
90
60
ENDCHAR

STARTCHAR afii10110
ENCODING 254
SWIDTH 500 0
DWIDTH 5 0
BBX 7 10 0 -2
BITMAP
12
0C
00
6C
24
28
30
20
40
80
ENDCHAR

STARTCHAR afii10193
ENCODING 255
SWIDTH 500 0
DWIDTH 5 0
BBX 4 7 1 -2
BITMAP
D0
50
50
A0
D0
40
80
ENDCHAR
ENDFONT
